# xmcd
#
# Track frame offsets:
#	150
#	16500
#	31575
#	44775
#	60000
#	75450
#	89400
#	108000
#	125250
#	141450
#	157950
#	174300
#	189375
#	202575
#	217800
#	233250
#	247200
#	265800
#	283050
#	299250
#
# Disc length: 4213 seconds
#
# Revision: 1
# Processed by: cddbd v1.5.1PL2 Copyright (c) Steve Scherf et al.
# Submitted via: audiograbber 1.83.01
#
DISCID=fa107314
DTITLE=Country Hit List - Chl9711
DYEAR=1900
DGENRE=Karaoke
TTITLE0=Shania Twain (Vocal) - Love Gets Me Every Time
TTITLE1=Trace Adkins (Vocal) - Rest Of Mine
TTITLE2=David Lee Murphy (Vocal) - All Lit Up In Love
TTITLE3=Mark Chesnutt (Vocal) - Thank God For Believers
TTITLE4=Pam Tillis (Vocal) - Land Of The Living
TTITLE5=George Strait (Vocal) - Today My World Slipped Away
TTITLE6=Kathy Mattea (Vocal) - Love Travels
TTITLE7=Lee Roy Parnell (Vocal) - You Can't Get There From Here
TTITLE8=Martina Mcbride (Vocal) - Broken Wing
TTITLE9=Sons Of The Desert (Vocal) - Hand Of Fate
TTITLE10=Shania Twain - Love Gets Me Every Time
TTITLE11=Trace Adkins - Rest Of Mine
TTITLE12=David Lee Murphy - All Lit Up In Love
TTITLE13=Mark Chesnutt - Thank God For Believers
TTITLE14=Pam Tillis - Land Of The Living
TTITLE15=George Strait - Today My World Slipped Away
TTITLE16=Kathy Mattea - Love Travels
TTITLE17=Lee Roy Parnell - You Can't Get There From Here
TTITLE18=Martina Mcbride - Broken Wing
TTITLE19=Sons Of The Desert - Hand Of Fate
EXTD=
EXTT0=
EXTT1=
EXTT2=
EXTT3=
EXTT4=
EXTT5=
EXTT6=
EXTT7=
EXTT8=
EXTT9=
EXTT10=
EXTT11=
EXTT12=
EXTT13=
EXTT14=
EXTT15=
EXTT16=
EXTT17=
EXTT18=
EXTT19=
PLAYORDER=
